<svg id="Capa_1" enable-background="new 0 0 512 512" height="512" viewBox="0 0 512 512" width="512" xmlns="http://www.w3.org/2000/svg"><g><path d="m2.184 112.6c-1.407 2.437-2.184 5.238-2.184 8.15v161.933c0 5.823 3.107 11.204 8.15 14.116l140.238 80.966c2.522 1.456 5.336 2.184 8.15 2.184l21.858-190.852z" fill="#b9e4ef"/><path d="m156.537 168.359v211.59c2.814 0 5.628-.728 8.15-2.184l79.028-45.627 69.36-113.847v-97.541c0-2.912-.777-5.713-2.184-8.15z" fill="#93d8e4"/><path d="m310.891 112.6c-1.407-2.437-3.444-4.51-5.966-5.966l-140.238-80.966c-5.043-2.911-11.256-2.911-16.299 0l-140.238 80.966c-2.522 1.456-4.559 3.529-5.966 5.966l154.354 89.116z" fill="#daf1f4"/><path d="m245.586 259.416c-1.206 2.089-1.871 4.489-1.871 6.984v138.766c0 4.99 2.662 9.601 6.984 12.096l120.175 69.383c2.161 1.247 4.572 1.871 6.984 1.871l11.512-164.246z" fill="#b9e4ef"/><path d="m278.78 131.139c-2.133-3.696-6.86-4.962-10.554-2.828l-111.688 64.483-111.688-64.482c-3.696-2.135-8.421-.868-10.554 2.828-2.134 3.696-.868 8.421 2.828 10.554l111.687 64.483v128.966c0 4.267 3.459 7.726 7.726 7.726s7.726-3.459 7.726-7.726v-128.966l111.688-64.483c3.696-2.134 4.962-6.859 2.829-10.555z" fill="#ecf9f9"/><path d="m58.227 115.193c-2.67 0-5.267-1.386-6.698-3.865-2.134-3.696-.868-8.421 2.828-10.554l45.745-26.411c3.696-2.134 8.421-.868 10.554 2.828 2.134 3.696.868 8.421-2.828 10.554l-45.745 26.411c-1.216.703-2.545 1.037-3.856 1.037z" fill="#ecf9f9"/><path d="m377.858 326.861v161.655c2.411 0 4.823-.624 6.984-1.871l120.175-69.383c4.322-2.495 6.984-7.106 6.984-12.096v-138.766c0-2.495-.665-4.895-1.871-6.984z" fill="#93d8e4"/><path d="m510.129 259.416c-1.206-2.088-2.952-3.865-5.113-5.112l-120.175-69.384c-4.321-2.495-9.646-2.495-13.968 0l-120.175 69.383c-2.161 1.247-3.907 3.024-5.112 5.112l132.271 76.367z" fill="#daf1f4"/><g fill="#ecf9f9"><path d="m333.68 243.865c-2.67 0-5.268-1.386-6.698-3.865-2.134-3.696-.867-8.421 2.828-10.554l44.185-25.51c3.693-2.134 8.422-.868 10.554 2.828 2.134 3.696.867 8.421-2.828 10.554l-44.185 25.51c-1.216.703-2.545 1.037-3.856 1.037z"/><path d="m483.568 274.75c-2.134-3.696-6.861-4.962-10.554-2.828l-95.157 54.939-95.156-54.939c-3.697-2.134-8.423-.868-10.554 2.828-2.134 3.696-.867 8.421 2.828 10.554l95.156 54.939v109.877c0 4.267 3.459 7.726 7.726 7.726s7.726-3.459 7.726-7.726v-109.877l95.157-54.939c3.696-2.133 4.962-6.858 2.828-10.554z"/></g></g></svg>