<svg height="512" viewBox="0 0 46 58" width="512" xmlns="http://www.w3.org/2000/svg"><g id="Page-1" fill="none" fill-rule="evenodd"><g id="001---Guage" fill-rule="nonzero"><path id="Rectangle-path" d="m19 45.64h8v4.36h-8z" fill="#7f8c8d"/><circle id="Oval" cx="23" cy="23" fill="#bdc3c7" r="23"/><path id="Shape" d="m42 23c.0015425 9.5380406-7.0686213 17.5989936-16.5254204 18.8412377s-18.36895318-4.7192733-20.83078923-13.93413c-2.46183605-9.2148566 2.28972985-18.82676596 11.10605443-22.46635952 8.8163246-3.63959357 18.9646524-.17872334 23.7201552 8.08925182 1.6570979 2.8810505 2.5294625 6.1463837 2.53 9.47z" fill="#9fc9d3"/><path id="Shape" d="m42 23c-.0006306 6.7815462-3.615719 13.048646-9.4857764 16.4444958-5.8700574 3.3958499-13.1050632 3.4055697-18.9842236.0255042-4.27699687-7.4435938-3.0312857-16.8304627 3.0391258-22.9008742s15.4572804-7.31612267 22.9008742-3.0391258c1.6614756 2.8792415 2.5341592 6.1457685 2.53 9.47z" fill="#84b5cb"/><rect id="Rectangle-path" fill="#bdc3c7" height="8" rx="2" width="20" x="13" y="50"/><path id="Shape" d="m37 22h-2.049c-.1164326-1.4246979-.4890734-2.8166806-1.1-4.109l1.776-1.025c.4742136-.2780058.6351286-.886647.3602745-1.3626943-.274854-.4760473-.8824145-.640996-1.3602745-.3693057l-1.774 1.024c-.8098289-1.1791705-1.8298295-2.1991711-3.009-3.009l1.024-1.774c.1814844-.3095704.1831833-.6926495.0044519-1.0038174-.1787315-.311168-.5104885-.50271359-.8693336-.5019247-.3588451.00078888-.6897567.1937913-.8671183.5057421l-1.025 1.776c-1.2928084-.6118495-2.6854948-.9851748-4.111-1.102v-2.049c0-.55228475-.4477153-1-1-1s-1 .44771525-1 1v2.049c-1.4246979.1164326-2.8166806.4890734-4.109 1.1l-1.025-1.776c-.2780058-.47421361-.886647-.63512861-1.3626943-.3602745-.4760473.274854-.640996.8824145-.3693057 1.3602745l1.024 1.774c-1.1791705.8098289-2.1991711 1.8298295-3.009 3.009l-1.774-1.024c-.47786-.2716903-1.0854205-.1067416-1.3602745.3693057-.27485411.4760473-.11393911 1.0846885.3602745 1.3626943l1.776 1.025c-.6118495 1.2928084-.9851748 2.6854948-1.102 4.111h-2.049c-.55228475 0-1 .4477153-1 1s.44771525 1 1 1h2.055c.1146779 1.4252001.4831368 2.8184357 1.088 4.114l-1.768 1.02c-.3119508.1773616-.50495322.5082732-.5057421.8671183-.00078889.3588451.1907567.6906021.5019247.8693336.3111679.1787314.694247.1770325 1.0038174-.0044519l2.6-1.5c.4771802-.277177.6396341-.8885048.363-1.366-2.4245608-4.2028521-1.4822389-9.5397579 2.2350159-12.6581675 3.7172547-3.1184096 9.1367135-3.1184096 12.8539682 0 3.7172548 3.1184096 4.6595767 8.4553154 2.2350159 12.6581675-.1329197.2297689-.169032.5029578-.1003798.759372.0686523.2564142.2364354.4750122.4663798.607628l2.6 1.5c.3095704.1814844.6926495.1831833 1.0038174.0044519.311168-.1787315.5027136-.5104885.5019247-.8693336s-.1937913-.6897567-.5057421-.8671183l-1.768-1.02c.6039422-1.2960696.9713858-2.6896459 1.085-4.115h2.055c.5522847 0 1-.4477153 1-1s-.4477153-1-1-1z" fill="#3f5c6c"/><path id="Shape" d="m25.03 25.2 1.59 2.75c.1401568.2833453.1435574.6151163.009238.901275-.1343193.2861586-.391718.4955137-.699238.568725l-1.67.52c-.2943351.116636-.6257902.0927053-.9003179-.0650021-.2745278-.1577075-.4621689-.4319809-.5096821-.7449979l-.26-3.16z" fill="#547580"/><path id="Shape" d="m22.1 21.138c-.4367401.0000266-.822978-.2833765-.954-.7l-1.194-3.817c-.1071797-.3408314-.0243864-.7129522.2171924-.9761882s.6052415-.3775954.954-.3c.3487584.0775953.6296279.3353568.7368076.6761882l1.2 3.817c.0955873.3039477.0406095.6352532-.148027.8920359-.1886366.2567828-.4883494.4083022-.806973.4079641z" fill="#e64c3c"/><circle id="Oval" cx="19" cy="35" fill="#3f5c6c" r="2"/><circle id="Oval" cx="27" cy="35" fill="#3f5c6c" r="2"/><g fill="#95a5a5"><path id="Shape" d="m27 54c0 .5522847-.4477153 1-1 1h-13v-2h13c.5522847 0 1 .4477153 1 1z"/><path id="Shape" d="m33 53v2h-3c-.5522847 0-1-.4477153-1-1s.4477153-1 1-1z"/><path id="Shape" d="m23 43c-11.045695 0-20-8.954305-20-20s8.954305-20 20-20 20 8.954305 20 20c-.0126747 11.0404407-8.9595593 19.9873253-20 20zm0-38c-9.9411255 0-18 8.0588745-18 18s8.0588745 18 18 18 18-8.0588745 18-18c-.0115721-9.9363282-8.0636718-17.98842786-18-18z"/></g><circle id="Oval" cx="23" cy="23" fill="#ecf0f1" r="3"/></g></g></svg>