<svg id="Layer_1" enable-background="new 0 0 510 510" height="512" viewBox="0 0 510 510" width="512" xmlns="http://www.w3.org/2000/svg"><g id="XMLID_10_"><path id="XMLID_250_" d="m465 0h-420v120h420zm-330 75h-30v-30h30zm60 0h-30v-30h30zm210 0h-180v-30h180z"/><path id="XMLID_245_" d="m465 150h-420v90h420zm-330 60h-30v-30h30zm60 0h-30v-30h30zm210 0h-180v-30h180z"/><path id="XMLID_214_" d="m465 420c-19.555 0-36.228 12.541-42.42 30h-92.58v-30h-60v-30h195v-120h-420v120h195v30h-60v30h-92.58c-6.192-17.459-22.865-30-42.42-30-24.813 0-45 20.186-45 45s20.187 45 45 45c19.555 0 36.228-12.541 42.42-30h92.58v30h150v-30h92.58c6.192 17.459 22.865 30 42.42 30 24.814 0 45-20.186 45-45s-20.186-45-45-45zm-330-75h-30v-30h30zm60 0h-30v-30h30zm30-30h180v30h-180z"/></g></svg>